<svg xmlns="http://www.w3.org/2000/svg" width="334" height="334" overflow="hidden"><defs><clipPath id="a"><path d="M232 193h334v334H232z"/></clipPath><clipPath id="b"><path d="M243 204h312v312H243z"/></clipPath><clipPath id="c"><path d="M243 204h312v312H243z"/></clipPath><clipPath id="d"><path d="M243 204h312v312H243z"/></clipPath><clipPath id="e"><path d="M243 204h312v312H243z"/></clipPath></defs><g clip-path="url(#a)" transform="translate(-232 -193)"><path fill="#FFF" fill-rule="evenodd" d="M233 360c0-91.679 74.545-166 166.5-166S566 268.321 566 360s-74.545 166-166.5 166S233 451.679 233 360Z"/><g clip-path="url(#b)"><g clip-path="url(#c)"><g clip-path="url(#d)"><g fill-rule="evenodd" clip-path="url(#e)"><path fill="#004098" d="M554 360.198C554 274.661 484.788 205 399.232 205 313.279 205 244 274.594 244 360.198 244 445.802 313.279 515 399.232 515 484.788 515 554 445.736 554 360.198Z"/><path fill="#FFF" d="M415 223c-5.328-1.875-11.037-3-16.81-3-6.089 0-11.862 1.125-17.19 3 4.567 3.75 10.657 6 17.19 6 6.534 0 12.243-2.25 16.81-6Z"/><path fill="#FFF" d="M417.677 224c-.377.377-1.133.755-1.511 1.132 4.156 3.397 13.599 11.763 17.061 26.104l-3.399.755c-3.022-14.027-13.221-22.33-16.683-24.594-1.134.755-2.267 1.509-3.778 1.887 3.022 3.396 8.31 10.944 7.933 23.085h-3.4c.378-12.078-5.666-19.311-7.932-21.576-1.889.378-4.155.755-6.422 1.133v20.443h-3.399v-20.443c-2.267-.378-4.911-.755-7.177-1.51-1.889 1.887-9.066 9.058-9.822 21.575h-3.021c.377-12.077 6.421-19.688 9.443-22.707l-2.266-1.132c-3.778 2.264-13.662 9.435-17.061 24.217l-3.4-.755c3.4-14.342 12.843-22.33 17.439-25.349-1.134-.755-1.889-1.51-2.644-2.265C361.332 231.548 350 247.84 350 266.773l23.105 51.453 2.644-1.51-21.972-49.943h7.933l19.327 50.321 3.022-1.132-18.95-49.189h13.221l10.954 48.811 3.4-.755-10.954-48.056h14.417V322h3.021v-55.227h14.417l-10.954 48.056 3.022.755 11.332-48.811h13.283l-19.327 49.189 3.022 1.132 19.705-50.321h7.555l-21.972 49.943 3.022 1.51L445 266.773c-.063-18.933-11.395-35.162-27.323-42.773Z"/><path fill="#E60012" d="M400.5 480.654c-43.895 0-79.049-35.034-79.049-78.403 0-43.745 35.154-78.779 79.049-78.779 43.517 0 79.048 35.034 79.048 78.779 0 43.369-35.593 78.403-79.048 78.403Zm0-169.654c-50.687 0-91.5 40.737-91.5 91.188C309 452.326 349.813 493 400.5 493c50.309 0 91.5-40.674 91.5-90.812C492 351.737 450.809 311 400.5 311Z"/><path d="M431.196 403.081s13.18 3.017 21.151-6.787l.753-1.885s16.632-6.411 14.686-11.69c0 0 4.519-4.902 5.272-7.541 0 0 12.49-9.05 12.051-14.329 0 0 7.908-7.165 4.142-8.673 0 0 13.933-10.999 8.661-16.655 0 0 6.778-10.558 3.013-17.408 0 0 6.025-10.936 3.765-16.655 0 0 2.636-10.935-1.129-18.916 0 0 1.506-11.69-2.636-18.163 0 0 1.129-8.673-4.519-13.198 0 0-1.13-8.296-6.402-10.181 0 0-6.401 37.771-35.084 53.671-3.389 1.131-6.401 3.017-6.778 10.935-.376 7.542 2.636 68.817-37.343 88.048l3.012-49.523-13.995-19.671-14.31 16.278 1.506 52.916c-40.418-19.293-36.966-80.506-37.406-88.048-.376-7.918-3.765-9.804-6.778-10.935-28.682-15.9-35.084-53.671-35.084-53.671-5.648 1.885-6.402 10.181-6.402 10.181-5.648 4.525-4.895 13.198-4.895 13.198-3.766 6.41-2.259 18.163-2.259 18.163-4.143 7.918-1.13 18.916-1.13 18.916-2.636 5.657 3.766 16.655 3.766 16.655-3.766 6.787 3.012 17.408 3.012 17.408-5.272 5.656 8.285 16.655 8.285 16.655-3.389 1.508 4.518 8.673 4.518 8.673-.376 5.279 12.051 14.329 12.051 14.329.753 2.639 5.272 7.541 5.272 7.541-2.26 5.279 14.749 11.69 14.749 11.69l.753 1.885c7.531 9.804 21.151 6.787 21.151 6.787l2.259 2.64s-32.824-.377-47.197 33.623c0 0 24.917-10.181 49.833-5.279 0 0 9.414 1.885 9.038 4.148-.377 2.639-.377 6.787-7.155 7.164-7.155.377-14.686 0-16.632 1.886-2.259 2.262-2.636 6.41-2.636 6.41l-27.176 1.885 34.331 3.771s1.883 1.886 3.012.754c1.13-1.131 3.766-.754 3.39.755-.377 1.508 4.518 3.016 6.778-.755l5.648-.377L357.075 479l66.464-4.902s7.532 5.279 12.427-1.885l20.774-4.525-18.514-.754s-3.013-10.559-10.984-10.559c0 0 1.883-10.935 4.519-11.312 3.013-.377 12.05.754 16.632.754 4.896-.377 10.167-.754 10.167-.754s21.904-2.263 37.406 8.673l-13.242-12.067s21.15 3.394 23.786 5.656c0 0-4.142-7.541-15.502-11.312 0 0 20.021 1.508 22.657 4.525 0 0-4.142-6.41-12.803-9.427 0 0 10.167-1.131 18.138 3.394 0 0-13.619-14.015-44.561-15.9 0 0-7.908-2.263-9.414-3.394-1.13-1.131-8.285-.754-8.285-.754l3.013-3.394H445.38l3.013-2.64-16.632-1.131 3.013-1.508-3.578-2.703Z"/><path fill="#FFF100" d="m417 392.622 4.555.378s28.53-17.44 30.427-37.84c1.898-20.84 3.037-49.991 6.832-52.258 4.176-2.266 27.392-17.818 34.224-36.706 3.036-9.067 2.657-17.44-1.898-18.196-.759 5.666-6.452 31.04-33.085 47.347-4.175 1.889-7.97 2.644-7.591 12.151.443 9.445-.316 68.125-33.464 85.124ZM476 342c-2.276 1.875-5.69 3.375-8.724 4.875-.759 2.25-1.517 4.875-2.276 7.125 3.414-1.875 7.586-3.75 8.724-4.875 1.075-2.25 1.896-4.5 2.276-7.125ZM473 353c-3.484 1.896-8.129 3.793-8.903 4.172v-.379c-.774 2.276-1.936 4.552-3.097 6.828 1.935.379 4.258.379 6.581.379 1.935-3.793 3.871-7.586 5.419-11ZM449 383.462c1.6.384 3.2 1.153 5.2 1.538 2.4-3.077 4.8-6.154 6.8-9.231-2 0-4-.384-6-.769-2 2.692-3.6 5.769-6 8.462ZM466 366.389c-2.692 0-4.615 0-6.539-.389-1.153 2.333-2.307 4.278-3.461 6.611 1.923 0 3.846.389 6.154.389 1.154-1.945 2.692-4.278 3.846-6.611Z"/><path fill="#FFF100" d="M457.931 363c2.276-5.101 4.552-9.838 6.069-15a103.55 103.55 0 0 1-7.586 3.279A67.466 67.466 0 0 1 453 361.846c1.138.425 2.655.85 4.931 1.154ZM458.761 337c2.107-.761 5.619-1.903 9.132-3.045 1.053-6.472 1.756-12.562 2.107-17.955-4.917 4.568-9.132 7.994-12 9.897.41 2.665.761 6.472.761 11.103ZM467 337c-3.462 1.064-6.577 2.129-8.308 2.484 0 2.839-.346 5.322-.692 8.516 1.731-1.065 4.5-2.129 6.923-3.194 1.039-2.838 1.385-5.381 2.077-7.806ZM469 343c3.333-1.548 6.667-3.871 8.519-5.807.74-1.935 1.111-4.258 1.481-6.193-2.222 1.548-5.185 2.71-8.148 4.258-.741 2.323-1.111 5.032-1.852 7.742ZM463.5 375c-1.806 3.536-3.972 6.679-6.5 9.822 2.528.785 4.694 1.178 7.583 1.178 1.084-1.178 1.806-2.75 1.084-3.928 0 0 3.25-3.143 4.333-7.072a18.065 18.065 0 0 1-6.5 0ZM450 393c1.2 0 2-.357 3.2-.357 2.4-.714 6-2.143 8.8-3.929-2.4 0-4.8-.357-6.8-.714-1.6 1.369-3.6 3.155-5.2 5ZM475 354c3.27-.756 9.082-2.645 14.592-4.533 2.906-2.645 8.356-7.556 7.266-12.467-8.719 4.533-17.499 7.933-18.952 8.689-.666 2.644-1.756 5.289-2.906 8.311ZM472.75 313.5c0 2.587-.375 5.174-.75 8.5 2.625-1.848 6.75-4.435 8.625-7.022.375-3.695.375-7.022.375-9.978-2.562 2.895-5.563 5.851-8.25 8.5ZM496.261 334.895S500 327.176 500 321c-9.347 8.491-17.261 12.351-19.13 13.509-.374 2.702-1.122 5.789-1.87 8.491 3.427-1.094 10.157-4.246 17.261-8.105ZM481 319c-3.077 2.971-7.308 5.2-8.846 5.943A283.5 283.5 0 0 0 471 332c3.462-1.486 6.539-2.971 8.846-4.829.385-2.6.769-5.571 1.154-8.171ZM453.727 372c1.091-1.944 2.182-3.889 3.273-6.222-2.182-.389-4-.778-4.727-.778-1.091 1.944-1.818 3.889-3.273 5.833 1.091.389 2.546.778 4.727 1.167ZM437.125 392c3-2.655 5.625-5.69 7.875-8.724-1.875-.759-3.375-1.517-4.5-2.276-3 3.414-6.375 6.448-10.5 9.483 1.875.822 4.125 1.201 7.125 1.517ZM470.824 312.19c.395-5.791 0-10.037 0-13.19a82.13 82.13 0 0 1-11.454 7.335S457 318.303 457 322.614c0 .386.395.386.395.386 3.16-2.316 7.9-5.791 13.429-10.81ZM483 287.361c.374 1.9.747 5.319 1.121 10.639 7.101-9.119 13.889-19.822 16.879-31.221-.374-1.14-1.121-1.9-1.868-2.66 0 0-.374-7.979-2.243-9.119-.062-.063 1.059 14.819-13.889 32.361ZM473 309c2.546-2.235 5.454-5.216 8-8.196 0-4.843-.364-8.569-.727-10.804-2.182 2.235-4.727 4.843-7.273 7.079 0 2.235.364 6.333 0 11.921ZM447.883 395c-1.412 1.6-2.471 2.8-3.883 4 2.471-.8 4.588-2.4 6-4h-2.117ZM429 394c.4.923.8 2.461 1.6 4 1.6-.923 3.2-2.154 4.4-3.077-2.4-.308-4.4-.615-6-.923ZM438 400.731c2.25-1.791 4.125-3.582 6-5.373-2.25 0-4.125 0-6-.358-1.875 1.791-4.125 3.582-6 5.015 0 .358.375.716.75.716 1.125.359 3 .359 5.25 0ZM446.677 393c1.775-1.905 3.549-4.19 5.323-6.095-1.419-.762-3.194-1.143-4.258-1.905-2.129 2.667-4.258 5.333-6.742 8h5.677ZM470 364c3.83 0 7.66-.393 12.255-1.178.383-.786.766-1.572.766-2.358 0 0 4.596-4.714 4.979-7.464-6.511 1.964-13.404 3.929-14.936 4.322-.766 1.964-1.915 4.321-3.064 6.678ZM466 373c1.5 0 3.375-.35 5.25-.35v-.35s6-2.1 9.75-6.3c-4.125.7-8.25.7-11.625.7L466 373ZM446.615 382c1.923-2.625 3.462-5.25 5.385-7.875-2.308-.375-3.846-.75-4.615-1.125-1.539 2.25-3.462 4.5-5.385 6.75 1.154.375 2.692 1.5 4.615 2.25ZM504 287.07c-.383-1.546-.767-3.091-1.533-4.251 0 0 .383-5.796 0-10.819-3.834 11.592-11.183 22.089-18.467 30.59V308c3.451-2.769 11.118-8.952 20-20.93ZM482.555 322.206c-.389 2.294-.778 4.206-1.166 6.5h.388l-.388.382c0 .765-.389 1.147-.389 1.912 3.498-1.912 10.496-6.118 18.724-13-.389-.382-.389-.765-.778-1.147 0 0 4.277-6.882 5.054-11.853-10.172 10.324-19.89 16.441-21.445 17.206ZM483.761 310.581c-.38 1.531-.38 3.061-.38 4.975v.382C483 317.087 483 318.235 483 319c3.807-2.296 12.181-8.419 20.619-17.667 0-.383-.38-.383-.38-.766 0 0 .761-4.975.761-9.567-9.961 12.692-18.335 18.433-20.239 19.581ZM381 392.622l-4.14.378s-28.667-17.44-30.173-37.84c-1.882-20.84-3.011-49.991-6.775-52.258-4.14-2.266-27.162-17.818-33.936-36.706-3.012-9.067-2.635-17.44 1.505-18.196.753 5.666 6.775 31.04 32.808 47.347 4.516 1.889 7.904 2.644 7.527 12.151 0 9.445.377 68.125 33.184 85.124ZM322 342c2.567 1.875 5.5 3.375 8.8 4.875.367 2.25 1.1 4.875 2.2 7.125-3.3-1.875-7.333-3.75-8.8-4.875-.733-2.25-1.467-4.5-2.2-7.125ZM326 353c3.484 1.896 8.129 3.793 8.903 4.172v-.379c.774 2.276 1.936 4.552 3.097 6.828-1.935.379-4.258.379-6.581.379-1.935-3.793-3.871-7.586-5.419-11ZM349 383.462c-1.419.384-2.839 1.153-4.613 1.538-2.484-3.077-4.258-6.154-6.387-9.231 2.129 0 3.903-.384 5.677-.769 1.42 2.692 3.194 5.769 5.323 8.462ZM332 366.389c2.308 0 4.615 0 6.539-.389 1.153 2.333 2.307 4.278 3.461 6.611-1.923 0-3.846.389-6.154.389-1.154-1.945-2.692-4.278-3.846-6.611Z"/><path fill="#FFF100" d="M340.069 363c-2.655-5.101-4.552-9.838-6.069-15a103.55 103.55 0 0 0 7.586 3.279A67.466 67.466 0 0 0 345 361.846c-1.201.425-2.655.85-4.931 1.154ZM340.151 337c-2.352-.761-5.88-1.903-9.799-3.045-1.176-6.472-1.96-12.562-2.352-17.955 5.487 4.568 10.191 7.994 13 9.897-.392 2.665-.849 6.472-.849 11.103ZM331 337c3.462 1.064 6.923 2.129 9.231 2.484 0 2.839.384 5.322.769 8.516-2.308-1.065-5-2.129-8.077-3.194-.769-2.838-1.538-5.381-1.923-7.806ZM330 343c-3.704-1.548-6.667-3.871-8.889-5.807-.37-1.935-.741-4.258-1.111-6.193 2.222 1.548 5.185 2.71 8.148 4.258.741 2.323 1.111 5.032 1.852 7.742ZM334.686 375c1.857 3.536 4.085 6.679 6.314 9.822-2.229.785-4.829 1.178-7.428 1.178-1.115-1.178-1.858-2.75-1.486-3.928 0 0-2.972-3.143-4.086-7.072 2.229.393 4.457.393 6.686 0ZM348 393c-1.1 0-2.2-.357-3.3-.357-2.2-.714-5.133-2.143-7.7-3.929 2.2 0 4.4-.357 6.233-.714 1.467 1.369 2.934 3.155 4.767 5ZM324 354c-3.417-.756-9.871-2.645-15.25-4.533-3.417-2.645-8.732-7.556-7.593-12.467 9.112 4.533 17.907 7.933 19.806 8.689.759 2.644 1.898 5.289 3.037 8.311ZM325.25 313.5c0 2.587.375 5.174.75 8.5-2.625-1.848-6.75-4.435-8.625-7.022C317 311.283 317 307.956 317 305c2.625 2.895 5.625 5.851 8.25 8.5ZM302.739 334.895S299 327.176 299 321c9.347 8.491 16.887 12.351 18.757 13.509.747 2.702 1.495 5.789 2.243 8.491-3.365-1.094-10.157-4.246-17.261-8.105ZM318 319c3.077 2.971 7.308 5.2 8.846 5.943.385 2.228.385 4.457 1.154 7.057-3.461-1.486-6.923-2.971-8.846-4.829-.385-2.6-.769-5.571-1.154-8.171ZM344.429 372c-1.143-1.944-2.286-3.889-3.429-6.222 2.286-.389 3.81-.778 4.952-.778.762 1.944 1.905 3.889 3.048 5.833-1.143.389-2.667.778-4.571 1.167ZM361.077 392c-3.077-2.655-5.769-5.69-8.077-8.724 1.923-.759 3.462-1.517 4.231-2.276 3.077 3.414 6.923 6.448 10.769 9.483-1.538.822-3.846 1.201-6.923 1.517ZM328.281 312.19c-.375-5.791-.375-10.037 0-13.19 2.992 2.702 6.733 5.019 10.849 7.335 0 0 1.87 11.968 1.87 16.279V323c-2.993-2.316-7.482-5.791-12.719-10.81ZM315 287.361c0 1.9-.36 5.319-.721 10.639-6.848-9.119-13.396-19.822-16.279-31.221.36-1.14.721-1.9 1.442-2.66 0 0 .36-7.979 2.523-9.119 0-.063-1.082 14.819 13.035 32.361ZM325.591 309c-2.864-2.235-5.727-5.216-8.591-8.196 0-4.843.409-8.569.818-10.804 2.455 2.235 4.909 4.843 8.182 7.079 0 2.235-.409 6.333-.409 11.921ZM351.118 395c1.059 1.6 2.47 2.8 3.882 4-2.471-.8-4.941-2.4-6-4h2.118ZM369 394c0 .923-.357 2.461-1.071 4-1.429-.923-2.858-2.154-3.929-3.077 2.083-.308 3.929-.615 5-.923ZM361 400.731c-2.25-1.791-4.125-3.582-6-5.373 1.875 0 4.125 0 6-.358 1.875 1.791 3.75 3.582 6 5.015-.375.358-.75.716-1.125.716-.75.359-3 .359-4.875 0ZM351.807 393c-1.936-1.905-4.259-4.19-5.807-6.095 1.548-.762 3.097-1.143 4.645-1.905 2.323 2.667 4.645 5.333 7.355 8h-6.193ZM328 364c-3.75 0-7.875-.393-12-1.178l-1.125-2.358S310.75 355.75 310 353c6.75 1.964 13.563 3.929 15.063 4.322.687 1.964 1.812 4.321 2.937 6.678ZM333 373c-1.5 0-3.375-.35-5.25-.35v-.35s-6-2.1-9.75-6.3c4.125.7 7.875.7 11.25.7 1.125 2.1 2.625 4.2 3.75 6.3ZM351.385 382c-1.923-2.625-3.846-5.25-5.385-7.875 1.923-.375 3.462-.75 4.615-1.125 1.539 2.25 3.462 4.5 5.385 6.75-1.154.375-2.692 1.5-4.615 2.25ZM295 287.07c.383-1.546.767-3.091 1.534-4.251 0 0-.767-5.796 0-10.819 3.833 11.592 10.734 22.089 18.466 30.59V308c-3.514-2.769-11.565-8.952-20-20.93ZM315.537 322.206c.366 2.294.366 4.206.732 6.5 0 0 0 .382.365.382 0 .765 0 1.147.366 1.912-3.291-1.912-9.873-6.118-17.612-13 .365-.382.365-.765.365-1.147 0 0-3.656-6.882-4.753-11.853 9.873 10.324 19.014 16.441 20.537 17.206ZM314.275 310.581c0 1.531.362 3.061.362 4.975h-.362c.362 0 .362.382.362.382 0 1.149.363 2.297.363 3.062-3.625-2.296-11.662-8.419-19.637-17.667 0-.383 0-.383.362-.766 0 0-.725-4.975-.725-9.567 9.426 12.692 17.039 18.433 19.275 19.581Z"/><path fill="#004098" d="m413.553 466-16.525-.376 13.158-13.973-32.988 1.504s-1.497-3.383 3.741-3.759c4.864-.376 9.729-2.632 12.036-2.632 2.619 0 9.728-2.256 10.476-3.383.748-1.128 5.613-3.384 9.354-1.88 3.368 1.504 9.728 6.391 7.857 9.022-1.87 2.632-1.87 5.64-4.489 7.144-2.246 1.566-3.742 6.077-2.62 8.333Z"/><path fill="#FFF100" d="M384.099 438s1.132 10.814-16.65 8.949c-5.655 1.119-9.802 3.729-9.425 7.458 0 0 9.425-8.949 6.032 2.983 0 0 6.409-10.068 7.54 2.61 0 0 3.393-2.237 3.393-4.847 0-2.238 1.885-5.967 4.524-6.712 2.639-.746 16.274-2.983 17.405-5.221 1.193-2.237-10.934-4.101-12.819-5.22ZM377.527 457.008l7.932.376L365 477l61-6.831-.378-2.256-34.497.752L404.03 454Z"/><path fill="#FFF100" d="M416.09 462.612s15.036-3.75 11.604 5.998c0 0-1.123 10.123 8.61-.375 0 0 2.62-7.123-10.481-11.622 0 0 1.123-11.247 4.492-13.497 2.994-2.249 24.019.375 25.89-.75 1.498-1.124 5.989-1.499 5.989-1.499l-9.732-4.874 13.538-.375-8.984-6.373h8.61l-7.861-3.375 5.989-2.624-3.743-2.25 3.369-2.999-10.481-2.999 3.369-2.25h-13.476l1.872-2.249h-12.353l-2.62-4.499-1.123 4.874 4.117 4.499h-7.486l1.871 9.373s-16.158.374-15.784-1.5c.375-1.875 2.995-4.124 2.995-4.124h5.615l1.497-4.124-5.24-1.5-8.298 1.375s-.748 3.749-4.866 4.124c-3.743.375-4.117 2.999-4.117 2.999l4.117 1.5L397 426.87l7.112 1.875-4.118 3.749 2.621 5.998h7.861s10.481 1.125 11.603 8.248c1.186 7.249-3.743 10.623-5.989 15.872ZM374.186 408s-30.959 2.67-48.186 26c0 0 22.186-6.866 47.423-1.526l-1.526-3.051L378 425.99l-8.391-2.67 8.391-1.525-5.34-3.052 5.34-3.051-3.051-1.907-.763-5.785Z"/><path d="M351.649 420s-7.606.83-10.649 7.889c-.063 0 13.312 1.661 10.649-7.889Z"/><path fill="#FFF100" d="M372 398.25s4.278 3.75 7.389 3.75H386l-3.111-6s-8.167 2.625-10.889 2.25Z"/><path fill="#FFF" d="M391.546 393.624 397 394v-60l-8 10.219ZM400 394v-60l9 12.555L407.56 394Z"/><path fill="#FFF100" d="M391.149 397.574s.761 3.147 0 4.328c-1.141 1.18 4.565 1.573 7.227 1.573 2.282 0 7.608 1.181 8.749 0 .761-1.18 1.521-4.327 1.521-4.327s4.565-2.755 3.044-2.755c-1.522 0-10.271-.393-10.271-.393h-6.086l-4.184 1.574Z"/><path fill="#FFF100" d="M414.91 398.035s-8.759 3.413-4.951 4.172c4.189.759 5.713 1.138 9.14.38 3.427-.759 6.474-1.897 6.474-1.897l3.427-3.035-4.189-2.655-4.189.379-5.712 2.656ZM403 407.012s4.791 2.113 1.843 4.227C401.894 413 408.896 413 408.896 413l7.739-1.057s4.791-2.113 5.897-1.409c1.105.705 2.211-1.409 2.211-1.409l2.211-4.226s.737-1.762-3.685-.353c-4.791 1.057-9.582.353-10.687.353-1.106 0-5.528.352-5.528.352L403 407.012Z"/></g></g></g></g></g></svg>