<svg xmlns="http://www.w3.org/2000/svg" width="224.99548pt" height="225pt" viewBox="0 0 224.9955 225.00001"><g fill-rule="evenodd"><path fill="#00a754" d="M33.054 33.059 112.735 0l79.202 33.299 33.059 79.436-33.294 79.441L112.496 225l-79.442-33.063L0 112.735Z" style="fill:#063;fill-opacity:1;stroke-width:4.51934"/><path fill="#fff" d="m42.093 42.098 70.642-29.259 70.163 29.259 29.254 70.637-29.49 70.402-70.166 29.254-70.642-29.254-29.015-70.402z" style="stroke-width:4.51934"/><path fill="#ed272d" d="M200.976 107.741 176.472 48.52l-63.736-26.642L48.52 48.52 23.777 107.74Z" style="fill:#ed1b24;fill-opacity:1;stroke-width:4.51934"/><path fill="#353794" d="m23.778 117.493 24.504 59.221 64.215 26.402 63.745-26.402 24.974-59.221z" style="fill:#2e3192;fill-opacity:1;stroke-width:4.51934"/><path fill="#fff" d="m88.478 39.717-.24 2.621c0 .47-.953 11.177-11.65 16.17l-1.668.714v16.885h9.514v82.057H73.492v19.976h71.117v-19.976h-9.753V39.717Z" style="stroke-width:4.51934"/><path fill="#00a754" d="M129.152 45.426v118.443h9.744v8.568h-59.94v-8.568h10.941v-93.47h-9.273v-7.61c9.038-4.994 11.89-13.318 12.844-17.363Z" style="fill:#063;fill-opacity:1;stroke-width:4.51934"/></g></svg>