<svg xmlns="http://www.w3.org/2000/svg" width="363.93423mm" height="139.67844mm" viewBox="0 0 363.93423 139.67844"><g style="stroke-width:.274774"><path d="M275.92 259.369h7.023v-6.154h-7.023zm14.406 23.068v11.961l-7.566-.046V267.07l-13.329-.015v-20.846h20.895v29.731h3.243v6.497z" style="fill:#3e3a39;fill-opacity:1;fill-rule:nonzero;stroke:none;stroke-width:.274774" transform="matrix(1.28388 0 0 -1.28388 -164.46 451.353)"/><g style="stroke-width:.274774"><path d="M0 0v-5.123h7.115v-5.812H1.172l5.917-10.509-4.616-3.592-6.233 9.265-6.766-9.265-4.334 3.592 6.125 10.341h-6.125v5.873h7.114V0Z" style="fill:#3e3a39;fill-opacity:1;fill-rule:nonzero;stroke:none;stroke-width:.274774" transform="matrix(1.28388 0 0 -1.28388 185.042 73.38)"/></g><g style="stroke-width:.274774"><path d="M0 0c-2.586 0-4.683-2.026-4.683-4.527 0-2.5 2.097-4.528 4.683-4.528s4.683 2.028 4.683 4.528C4.683-2.026 2.586 0 0 0m10.629-4.444c0-5.945-4.879-10.767-10.901-10.767-6.019 0-10.897 4.822-10.897 10.767 0 5.949 4.878 10.767 10.897 10.767 6.022 0 10.901-4.818 10.901-10.767" style="fill:#3e3a39;fill-opacity:1;fill-rule:nonzero;stroke:none;stroke-width:.274774" transform="matrix(1.28388 0 0 -1.28388 230.255 87.2)"/></g><g style="stroke-width:.274774"><path d="M0 0v-20.338h20.54v6.833H6.488V0Z" style="fill:#3e3a39;fill-opacity:1;fill-rule:nonzero;stroke:none;stroke-width:.274774" transform="matrix(1.28388 0 0 -1.28388 278.131 109.138)"/></g><g style="stroke-width:.274774"><path d="M0 0h20.771v-6.493H6.538v-6.498h14.05v-5.985H.056Z" style="fill:#3e3a39;fill-opacity:1;fill-rule:nonzero;stroke:none;stroke-width:.274774" transform="matrix(1.28388 0 0 -1.28388 310.44 80.176)"/></g><g style="stroke-width:.274774"><path d="M0 0h7.206v-11.614h3.603V0h6.486v-34.686h-6.307v15.376H7.563v-15.548H.18Z" style="fill:#3e3a39;fill-opacity:1;fill-rule:nonzero;stroke:none;stroke-width:.274774" transform="matrix(1.28388 0 0 -1.28388 341.73 73.38)"/></g><path d="M322.21 280.901h-4.503v-3.075h4.503zm-6.666 4.959 6.848.17v8.2h7.202v-34.181h-7.024v12.82h-6.666" style="fill:#3e3a39;fill-opacity:1;fill-rule:nonzero;stroke:none;stroke-width:.274774" transform="matrix(1.28388 0 0 -1.28388 -164.46 451.353)"/><g style="stroke-width:.274774"><path d="M0 0c-2.586 0-4.685-2.031-4.685-4.531 0-2.504 2.099-4.528 4.685-4.528 2.584 0 4.682 2.024 4.682 4.528C4.682-2.031 2.584 0 0 0m10.623-4.447c0-5.945-4.875-10.765-10.894-10.765-6.017 0-10.898 4.82-10.898 10.765 0 5.951 4.881 10.768 10.898 10.768 6.019 0 10.894-4.817 10.894-10.768" style="fill:#3e3a39;fill-opacity:1;fill-rule:nonzero;stroke:none;stroke-width:.274774" transform="matrix(1.28388 0 0 -1.28388 276.408 85.596)"/></g><path d="M358.164 282.147h-4.509v-3.076h4.509zm-6.671 4.957 6.844.171v8.204h7.202v-34.184h-7.023v12.819h-6.667" style="fill:#3e3a39;fill-opacity:1;fill-rule:nonzero;stroke:none;stroke-width:.274774" transform="matrix(1.28388 0 0 -1.28388 -164.46 451.353)"/><g style="stroke-width:.274774"><path d="m0 0 .107-.055s.217-.219.382-.276l.16-.053.109-.165s.109-.165.216-.388c.109-.216.056-.326.218-.437.163-.108.326-.272.326-.272l.161-.387s.055-.163.055-.328v-.605s.109-.111.109-.331v-1.32l-.055-.164s0 .057-.054-.274c-.055-.33 0-.112-.109-.496-.107-.385-.107-.55-.107-.55-.055-.274-.055-.274-.055-.492v-.66l.055-.219v-.221l-.055-.272-.053-.167V-8.57c0-.332-.055-.442 0-.607l.053-.163-.165-.386-.106-.165s.053.386-.056-.163c-.106-.55-.216-.605-.216-.605s-.108-.33-.108-.496c0-.164-.054-.33 0-.491.055-.164.055-.223.055-.387v-.165s-.162.056-.162-.11c0-.165.107-.274-.056-.384l-.16-.111s.269.386-.056-.22l-.326-.605v-.825L0-14.724s-.107.108-.219-.111a3.383 3.383 0 0 0-.269-.439l-.111-.221s-.162 0-.271-.165l-.107-.166s-.057-.109-.057-.274c0-.164-.053-.825-.053-.989v-.165s-.272-.274-.434-.386c-.164-.106-.217-.218-.217-.384 0-.162-.216-.162-.272-.493-.053-.332-.106-.549-.106-.549l-.165-.439s-.432-.057-.485-.221c-.053-.165-.165-.549-.165-.549s-.214-.056-.214-.384c0-.331-.11-.551-.11-.551s-.109-.054-.109-.221v-.165l-.216-.382-.216-.11s-.162-.111-.162-.276c0-.165-.165-.219-.218-.386a1.103 1.103 0 0 0-.215-.329s-.056-.165-.219-.33c-.162-.163-.269-.219-.269-.384s-.165-.274-.165-.439c0-.166-.161-.273-.161-.273l-.217-.22s-.165-.222-.328-.386-.327-.329-.489-.329c-.162 0-.271.107-.271-.055 0-.166-.162-.275-.162-.275s-.054-.167-.219-.332c-.16-.163-.16 0-.325-.163-.159-.163-.268-.33-.268-.33s-.111.055-.272 0c-.162-.054-.704-.329-.704-.329s0 .165-.163 0c-.164-.167-1.03-.167-1.192-.276-.164-.11-.325-.165-.325-.165l-.868-.275-.111-.274s-.269.274-.54-.164l-.272-.439s-.053-.167-.053-.331c0-.165-.11-1.262-.11-1.262v-.223s-.053.058-.162-.161c-.109-.222-.218-.386-.218-.386s-.162.547-.162-.166c0-.714-.269-.274-.054-.879l.216-.603-.162-.113s-.269.165-.489.057a.55.55 0 0 1-.269-.33s-.056 0-.271-.112l-.216-.107s-.706.496-.868.438c-.165-.055-.165.661-.165.661s-.162.109 0 .493c.165.386.112.661.112.661v1.043l-.056.22s-.003.437-.056.548c-.054.113-.054.439-.054.439v.222s.166.221-.055.33a.53.53 0 0 0-.269.275l-.055.658-.054.166.054.384s.217-.164.324.274c.109.442-.053.33-.053.605 0 .276.053.879.053.879v.274l-.163.165-.106.385-.272 1.044.272.661v.22l.053.273.109.384s.054.056.054.276c0 .218 0 .549.053.824.055.274 0 .549 0 .549s-.216.22-.324.385l-.109.164s0-.272-.108.219l-.108.497s-.053 0-.053.165v.44s.161.549.161.714c0 .163.054.494.054.494l.054.22.109.111.217.109.216.22.437.658h.162s.434.551.596.77c.163.22.163.384.163.384l-.056.165v.166s.056.77.218.823c.164.055.324.112.324.112.271.328.434.439.434.439v.163s.109.11.218.275c.107.165.107.22.162.384.054.165.325.441.325.662 0 .219-.271.272 0 .219.272-.055.325.22.325.22l.273.164.052.165.162.11.326.165s.11 0 .11.165 0 .053.053.33l.054.274.108.219s.109.057.272.11l.165.056.216.22.162.219v1.098s-.106.166.056.221c.163.056.053.33.216.55l.162.218.054.167s.055.275.218.494l.16.221.273.218s.107.053.163.274l.055.222.271.328.161.275.164.165.163.109.107.22.055.165s.105.111.271.278c.16.162.325.162.325.384v.218s0 .221.162.274l.161.054.109.221.326.387.108.218.273.165.327.165h.161l.436.11.162.217.107.166.056.165.159.109c.165.112.327.112.327.112s-.053.112.272.329c.323.221.814.327.814.327h.378l.16.059c.218-.059.434-.059.434-.059l.326.059.487-.059.435-.106.272-.112z" style="fill:#00a960;fill-opacity:1;fill-rule:nonzero;stroke:none;stroke-width:.274774" transform="matrix(1.28388 0 0 -1.28388 117.388 8.888)"/></g><g style="stroke-width:.274774"><path d="M0 0h.321s.166-.109.326-.109h.326l.274-.221.108-.219.326-.109s-.109.053.106-.112c.219-.165.379-.219.379-.219s-.054-.112.165-.33c.215-.22.434-.493.434-.493s.056-.112.056-.277c0-.166-.056.165-.056-.384v-.769L2.6-3.41l-.107-.217c-.056-.274-.056-.492-.056-.492s.109-.222.109-.387v-.662s-.162-.052-.271-.273a2.261 2.261 0 0 1-.163-.495s-.162.385-.053-.22c.107-.601.107-.218.107-.769 0-.548-.325-.712-.485-.876-.164-.165-.22-.334-.22-.334s-.053.112 0-.109c.056-.216 0-.216.056-.439.055-.22.055.223.055-.385v-1.591c0-.167-.111-.276-.111-.276s-.16.164-.16-.054v-.386c0-.166-.165-.271-.165-.438v-.166s0-.166-.109-.33c-.107-.168-.107-.168-.268-.273-.164-.11-.272-.331-.272-.331s-.109-.055-.109-.275c0-.221-.057-.109-.057-.33v-.878c0-.329-.053-.385-.053-.606v-.385s-.053 1.153-.106-.108C.107-16.76 0-16.871 0-16.871l-.11-.16-.053-.227s.105-.105-.162-.385c-.274-.271-.274-.327-.327-.49-.054-.165-.054-.332-.054-.332l-.053-.216-.054-.331s-.111-.22-.111-.386v-.383s-.108 0-.108-.167v-.162l-.161-.329v-.662s.161 0 .109-.163c-.053-.166-.164-.058-.164-.33 0-.277 0-.165-.053-.496-.056-.328-.166-.107-.22-.711-.054-.606-.054-.771-.054-.771s.111-.058-.11-.167c-.215-.109-.215-.277-.215-.277l-.053-.216.161-.495h.162s.055-.055.109-.222c.057-.161-.106.442.057-.328.163-.769 0-.827 0-.827h-.221s-.107 0-.107-.217v-.659c0-.218-.108 0-.108-.331v-.331c0-.328-.11-.438-.11-.658 0-.218.163-1.373.163-1.373s.055 0 .055-.165c0-.166-.218-1.152-.218-1.152v-.223s-.108-.108-.108-.271c0-.165-.054-.278-.054-.44 0-.168-.162-.168-.162-.386 0-.22-.054-.331-.054-.331v-.658l-.056-.384v-.109c.056-.276.056-.55.056-.55v-.33c0-.221-.216-.552-.216-.552l-.055-.106.055-.331s0-.165.054-.331c.053-.165.053-.328.053-.551v-.656s-.107.271-.053-.386c.053-.658.053-.493.053-1.044 0-.549.053-.767.053-.767s.056-.498.056-.715c0-.222-.056.054 0-.222.054-.274 0-.768 0-.768l.054-.328.109-.222.215-.219s-.053 0-.053-.167c0-.163-.055-.216 0-.382.053-.165 0-.279.053-.439.057-.166 0-.166.057-.33.053-.167.053-.167.053-.44 0-.277.053.494 0-.441-.053-.936-.053-1.154-.053-1.154l.215-.053.108-.168c.055-.273 0-.273 0-.493 0-.218.055.167 0-.218-.055-.386-.108-.386-.055-.551.055-.163-.053-.109.055-.33.109-.219-.108 0 .109-.219l.22-.222c.217-.22.217.165.269-.381.055-.553.055-.829.055-.829v-.328c0-.165 0-.547.107-.714.111-.164.218-.33.218-.33s.053-.164.164-.331c.107-.16.163-.49.163-.49l.053-.169.109-.162.163-.165s0-.111.053-.274c.054-.167.268-.989.268-.989.274-.113.326-.113.438-.275.106-.168.268-.714.268-.714l.22-.386.161-.11.488-.604.11-.113.378-.163.162-.109.163-.111c.218-.275 0-.166.218-.275.219-.107.434-.107.434-.107s.055.079.218-.056c.162-.137.053-.137.325-.137.269 0 .542-.302.542-.302h.216l.214-.114s-.323.223.167-.054c.484-.275.322 0 .484-.051.163-.058.381.16.598 0 .216-.165.488-.165.648-.165a.623.623 0 0 0 .274-.059l.708-.107.053.22.053-.499-.106-.217s.487.111-.057-.275c-.543-.384-.271-.219-.271-.219l-.163-.331-.217-.109-.274-.056-.323-.328-.162-.055-.38-.273-.325-.058h-.381l-.106-.328.106-.165.163-.165h-.378l-.381.055s-.107.11-.322.218a2.337 2.337 0 0 1-.436.168l-.432-.056-.326.219-.11.165-.921.496-.812.163-.165.058-.27-.058-.217.058-.274.051-.321.331-.544.494.056.331-.164.216-.325.115c-.16.054-.271.107-.271.107l-1.031-.053-.165.825v.33l-.053.217-.378.112s-.271.327-.271.492c0 .166-.272.275-.272.275l-.217.111-.161.055-.326.328-.054.22v.224s-.165.545-.165.711c0 .165-.217.496-.217.496l-.052.493v.44l-.596-.331-.325.167-.162.055h-.164l-.109.052-.161.279-.111.217-.165.331-.053.163v.165s-.053.162-.053.332c0 .164-.054-.274-.107.382-.056.661-.056.771-.056.771l-.218.383s-.053.221-.053.385c0 .166-.054.274-.054.274l.488.055.162.057v.55c0 .219.003.821-.056.989l-.053.164.164.717-.164-.116h-.541l-.325-.051-.215.107.215.442.269.056.056.384-.271 1.265-.381.109-.053.33-.162.382v.608l-.054.162-.057.166-.323.108s-.162 0-.215-.165a3.393 3.393 0 0 0-.165-.384l-.052-.109s-.11 0-.163-.163c-.056-.168 0 .054-.056-.168-.054-.218.271 0-.054-.218-.324-.219-.162.112-.324-.219-.163-.33-.163-.165-.163-.33 0-.166.703.22 0-.166-.706-.386-.706-.273-.706-.386 0-.108.544 0 .544 0l-.218-.327-.053-.223-.163-.162s-.056.108-.056-.11v-.822s.112.165 0 0c-.108-.167-.108.27-.108-.06v-.602s-.814-.055-.977-.163l-.163-.112s.706-.22 0 0c-.705.22-.814.22-.814.22s0-.055-.16.055c-.165.109.053-.11-.165.109l-.213.222-.056.271-.269.112-.22.055-.107.218s-.055.661-.055.829c0 .163-.054.326-.054.326s0 .55.054.826c.055.273.055.439.055.439s-.162-.053.053.218c.217.277-.053.112.217.277.27.163.541.933.541.933s.054.055.108.219l.058.165v.382s.106-.051.053.167c-.053.219-.053.443-.053.443l-.058.437.111.221s-.111.274.053.33l.164.054.161.383s.053.221 0 .386c-.053.166-.053-.165-.053.166 0 .327-.165 0 0 .327l.162.331v.276s.055-.058 0 .273c-.056.331.162.112-.056.331-.214.22.326-.439 0 0-.325.441-.596.11-.325.441.272.327.054.273.272.327.216.056.164.111.379.166.217.054 0-.11.217.054l.218.165s-.218-.66 0 0c.215.66.215.77.215.77v.605l-.27.218-.055.825v.163l.272.606.109.328.107.223s.164.548.327.769l.165.217s-.219-.217 0 0c.216.221.325.497.325.497l.216.275.109.218v.276l.162.054.056.77-.218.11h-.109l-.109.22-.053.22-.054.329.054.44.053.218s.055.221.055.386c0 .166.109.549.109.549l.216.438s.056.167.056.332.053.331.053.331.216.165.271.325l.054.168v.218l.163.331.106.33v.222l-.106.657v.331l.215.329.053.275s.112.548.165.716c.055.163 0-.168.055.163.054.328.27.549.27.549.055.383-.109.438-.109.661v.216c0 .936-.216.385 0 .827.217.439-.107.221.055.329.162.11.596.11.596.276 0 .16.056.22.056.387 0 .16.105 1.043.16 1.205.055.168.162.221.218.386.053.163 0 .11.106.273.11.165 0-.11.11.165.109.277.053.056.109.277l.053.219s-.162-.165-.162.272v.439c0 .277-.379-.93 0 .277.38 1.209.109.881.327 1.041l.213.168v.276c0 .272-.106.44-.106.44l-.054.273s-.053.058 0 .218l.054.167.106.276s.056-.058.276.163l.214.221.22.493V-8.628l.214.439s.111.111.164.277c.053.163.162.439.162.439l-.053.274.053.442s.381.383.381.546c0 .166.053.333.053.333s0 .383.054.658c.055.272.055.386.055.386l.052.272.545.443v.549l-.056.658.056.22.325.822.217.331s.161 0 .214.164c.056.167-.161.056.056.167.218.107.597.438.597.438.325.277.486.277.486.277l.326.439.328.164.432.109.433-.054.218-.055z" style="fill:#00a960;fill-opacity:1;fill-rule:nonzero;stroke:none;stroke-width:.274774" transform="matrix(1.28388 0 0 -1.28388 130.127 63.276)"/></g><g style="stroke-width:.274774"><path d="m0 0 .163-.22-.218-.331-.107-.275.055-.216V-1.759l.16-.218h.76l.326-.22.271-.331v-.274l-.055-.164-.109-.33v-.274l.325-.221.22-.11s.216-.055.271-.218l.054-.166.109-.274-.055-.384-.054-.223v-1.152l.162-.221.161-.109.111-.277v-.163s.053-.109.053-.276v-.602l-.053-.331-.217-.221-.108-.219s-.055-.163-.109-.33c-.054-.165-.054-.054-.054-.386v-.548l-.055-.329-.111-.44c-.052-.221-.052-.328-.161-.493-.109-.165-.218-.331-.271-.496-.054-.165-.054-.437-.054-.437l-.055-.223s.055-.109-.054-.273a46.21 46.21 0 0 0-.217-.329l-.217-.384-.108-.386.054-.331.163-.219s.27.054 0-.33c-.271-.386-.324-.274-.324-.603v-.607l-.11-.383s-.055-.054-.217-.163C.163-16.539 0-16.704 0-16.704l-.381-.222s-.162-.053-.378-.218c-.215-.165-.215-.219-.38-.327a.595.595 0 0 1-.215-.277l-.054-.275s-.218.11-.058-.163c.165-.277.165-.497.165-.497l.162-.166h.489l.323.166.22.276.107.166.434.055.108-.221c.11-.33.11-.33.11-.496v-.492l.27-.331.217-.219c.053-.276-.111-.276-.111-.276-.431.165-.649.22-.649.22l-.163.22-.163.055s.053.055-.16.055c-.22 0-.382.111-.382.111l-.161.055h-.164l-.107-.221s-.053.221-.163 0c-.11-.219.216-.604.216-.604s.218 0 .325-.111c.109-.108-.107-.383-.107-.383l-.164-.109v-.221c0-.165.107-.165-.054-.331-.162-.165-.271-.218-.433-.33-.165-.11-.866-.165-.866-.165l-.164-.053s-.11.108-.165-.11c-.053-.219-.108-.384-.108-.384l-.323-.223-.111-.273-.868.166-.052.163-.651-.386s.163.057-.163-.107c-.324-.167-.543-.219-.543-.219l-.435.165h-.16l-.38.273h-1.033l-.565.055-.245-.055-.162.111-.489.495h-.758s.106.109-.217.109c-.325 0-.814.22-.976.166-.163-.056-.38.272-.38.272l-.218.33-.161.11-.22.275s-.053 0-.272.167l-.215.162-.163.165s-.217.111-.217.329v.221l-.163.33v.552s0 .106-.162.218c-.163.107 0-.218-.163.107l-.162.331-.107.222-.109.273-.217.275-.219.822-.215.278-.052.221v.218l.106.219v.384l.108.277-.162.219-.052.274.052.386.054.218v.441s-.054 0-.054.164c0 .165 0 .165-.052.328-.057.166 0 .166-.057.552-.054.384-.054.551-.054.551l.054.272.217.275.107.275.111.383.108.277.108.328.109.277.053.163v.493l.056.279.053.217v.276l.109.33.107.272.056.221s.053.057.053.222c0 .164.271.328.271.493 0 .165.054.439.054.439v.329c0 .167.054.441.054.441l.217.381.216.387.056.223.269.438.109.22.053.219.111.218.325.331.11.331.055.275.381.165.162.053h1.137l.216.056.324.054c.219-.274.598 0 .598 0V-1.759s-.028.055.161.055h.38l.271-.055h.843l.19.222.164.109v.22l.106.329.217.275s0 .165.16.165h.654c.216-.165.812-.165.975-.165h.163l.325.33s.109.054.272.054h.757l.326-.109s.219-.057.381-.057c.164 0 .271.166.271.166l.218.165.161.055.217.112h.703z" style="fill:#0079b3;fill-opacity:1;fill-rule:nonzero;stroke:none;stroke-width:.274774" transform="matrix(1.28388 0 0 -1.28388 58.144 8.818)"/></g><g style="stroke-width:.274774"><path d="m0 0 .523-.312V-.63l.312-.424v-.421l.106-1.376.417-.42h.519v-.319l-.104-.635s-.208-.105-.208-.418c0-.321-.207-.851-.207-.851v-.526s-.001-.105.312-.421c.313-.32.522-.848.522-.848l.104-.315s-.313-.317-.419-.634c-.104-.319-.104-.741-.104-.741l-.103-.422.313-.634c.52-.317.833-.424.833-.74v-.317l.103-.422s-.103-.422-.103-.742v-1.474l-.207-.426v-.632l-.106-.424.313-.844.208-.846.104-.529v-1.795s-.104-.106-.104-.422c0-.318.104-.739.104-.739s0-.105.315-.213l.31-.107-.102-.529-.208-.422c-.315-.524-.627-.738-.627-.738l.312-.737.107-.531.103-.422c.521-.74.834-1.165.834-1.165V-26.623l1.251-1.585-.521-.316-.313-.316-.104 1.056h-.313c-.103-.74-.103-1.056-.103-1.056 0-.318.207.21 0-.318l-.21-.529.104-.318v-.633s-.835.845.209-.315l1.043-1.162.519-.952.105-.317.104-.316-.209-.634-.104-.424-.728.527-.313.106s-1.565.425-1.98.215l-.417-.215-.315.741-.625.527-.311.318-.418.211-.313.107s-.21.422-.626.844l-.417.424-.377.736v2.643-.318l-.77-.106-.531.634v.318s-.511.106-.511.423c0 .319-.104.634-.104.634v1.163s-.209 0-.312.319l-.103.315-.42.421-.206.317-.316.741V-21.341l-.103.529-.315.212-.207-.531-.31-1.477s-.212-.525-.419-.846l-.207-.317-.626-.529-.106-.844v-.315l-.312-.424c-.104-.421-.104-.844-.104-.844l-.106-.422s-.101.103-.207-.318c-.105-.425-.415-.741-.415-1.057v-.316l-.106-.741-.207-.316s-.419.104-.419-.214v-.842l-.106-.424-.101-.317s-.313.104-.419-.211l-.104-.316-.208-.846-.103-.528s.208-.315-.105-.53c-.314-.209-.731-.633-.731-.633v-.951l-.207-.526-.207-.532s.308-.105.308-.42c0-.318.626.739 0-.318l-.623-1.057s-.524.21-.524-.107v-.735l-.729.631.524 1.058s.31-.213.103.421l-.311.951s-.523.318-.626.634l-.107.317-.31.211-.626.53-.521.21-.208.953.102.314c.106.317.106 1.584.106 2.221v.635s.207 1.267.728 1.688c.52.422.939.632.939.632l.312.531v1.372l.211.636s-.211 1.795 0 2.111c.208.315.518.422.518.422s.107-.422.522.318c.419.741.104.105.419.741l.311.631.416.213.105.531-.105.948v.741l.105.527-.415.423s.207.632.207 1.161.103.951.103.951 0-.422.211.424l.313 1.265v.322l.313.208s-.21-.53.208.425l.415.949.106.634v.317s.104.105.104.422c0 .316.106.316.106.636v.315s.834.953.834 1.372c0 .424-.314 1.268-.314 1.268l-.104.321v.314s0 .108.312.529l.313.422.104.741v.632l.209 1.692.416.42.103.318.73.634.837.741 1.042.316.313.104s.5.106.927.106h.949z" style="fill:#0079b3;fill-opacity:1;fill-rule:nonzero;stroke:none;stroke-width:.274774" transform="matrix(1.28388 0 0 -1.28388 51.24 81.36)"/></g><g style="stroke-width:.274774"><path d="m0 0 .168-.272-.206-.565-.399.167-.018.369-.018.369" style="fill:#00a4dd;fill-opacity:1;fill-rule:nonzero;stroke:none;stroke-width:.274774" transform="matrix(1.28388 0 0 -1.28388 32.264 128.855)"/></g><g style="stroke-width:.274774"><path d="m0 0 .109-.459H.49l.27.058.161.056.22.23.271.171.216.288.218.114.27.227s.162.12.325.176c.163.056.598.115.76.115h.38l.434-.059.216-.056.162-.115.381-.061.433-.054s.107-.058.271-.058c.161 0 .161.058.328-.058.161-.113.216-.057.323-.227a.593.593 0 0 1 .272-.232l.106-.285.22-.459.053-.401.216-.343s.162 0 .162-.171c0-.172.056.056.056-.461v-.858l-.056-.174s-.053-.113-.215-.229c-.163-.113-.163-.343-.163-.343l-.053-.171s-.056-.172-.056-.343v-1.434l-.053-.171V-6.59l.162-.401.163-.289.107-.229v-.285s.055 0 0-.173c-.054-.172 0-.115-.217-.345-.215-.227-.27-.4-.27-.4s-.108 0-.056-.229c.056-.228.056-.172.056-.458 0-.288.055-.344.055-.518v-.341l-.055-.232s-.056 0-.056-.169v-1.664l-.106-.342-.109-.231v-.229l-.055-.228v-.345l-.27-.287-.109-.284s-.052-.288-.052-.46c0-.171 0-.171-.056-.343-.055-.174-.055-.287-.218-.461-.162-.171-.162-.112-.325-.284-.162-.173-.272-.23-.272-.401 0-.172-.108.056-.108-.574 0-.628-.053-.92-.053-.92s-.487 0-.652-.284c-.16-.285-.107-.456-.16-.63-.056-.171-.109-.687-.109-.859v-.574s0 .287-.111-.4c-.107-.688-.161-.917-.161-.917s-.055.572-.055-.458v-1.723l.216-.112.273-.228s.052-.06.216-.06H4.935l.163-.057h.434l-.054-.284s-.218-.345-.38-.403l-.163-.059s-.108 0-.27-.112a.614.614 0 0 1-.216-.287h-.382l-.214-.115h-.381l-.162-.172s.162-.056-.162-.056h-1.52l-.216.056-.165.057h-.161l-.271-.057-.165-.056H.055s-.974-.173-1.138-.173h-1.462l-.38.056-.163.173-.326.114-.274.114-.214.174h-.163l-.219.172-.107.171-.323.342-.165.288-.489 1.205-.053.342v1.204l-.325.516.272.517.053.169v.288l-.053.859-.219.056-.106.345-.055.345.055.345.053 1.088v.344l.053.458.056.345-.056.227v.346s-.106.343-.106.515v.174l-.055.171.055.344v.342l.106.288.109.23.11.171.271.573v.46l-.165.226-.053.288-.053.231-.056.687v.227s.218.228.218.402c0 .171.053.344.053.344v.344l.219.114.053.229s-.053.288-.053.461c0 .169.106.402.106.402l.055.168.217.231.108.286-.16.286-.22.232v.34c0 .174.055.289.055.461 0 .168.325.342.325.342s.107 0 .107.289v1.032l.163.343.164.514.218.575.052.344.162.916.164.345.11.227.161.289.111.342.164.459.106.23.163.459.327.227.54.115.38.057.543-.057.377-.058.869-.687L.218.23Z" style="fill:#fdd000;fill-opacity:1;fill-rule:nonzero;stroke:none;stroke-width:.274774" transform="matrix(1.28388 0 0 -1.28388 77.355 1.618)"/></g><g style="stroke-width:.274774"><path d="M0 0c.298-.067.623-.138.744-.138h.765l.205-.328.119-.083v-.203l-.079-.164-.204-.246-.121-.081-.039-.165-.041-.121.24-.247.125-.245.119-.204v-.368s.08-.122.201-.207c.123-.078.324-.284.324-.284l.12-.123.163-.123V-3.782l.122-.12.12-.165.162-.164v-.204c0-.124-.041-.124 0-.245.042-.124.042-.284.042-.284l.038-.206.08-.207.162-.079.16.038.162.041.366-.041s.077 0 .2-.082c.122-.08.283-.08.283-.08l.245-.083.158-.204.241-.084.124-.078.163-.124.117-.163.124-.041.2-.164h.605c.163 0 .245-.248.245-.248l.041-.077.241-.044.159-.041h.164l.482-.041.123-.042h.405l.239-.079.242-.083.244-.165.242-.08.202-.041.241.041.082-.041.282-.042s.164 0 .244-.122c.08-.123.242-.164.242-.164s.122-.08.283-.08h.322l.121-.041.201-.042s.242.083.363.083h.365l.122.037s.201.125.362.125c.162 0 .809.082.971.082.16 0 .281-.04.281-.04l.202-.167s0-.12.121-.161c.119-.041.325-.083.325-.083h.28l.284-.04h.281c.203 0 .245.082.404 0 .162-.081.484-.122.484-.122h.564l.162.245h.243l.122-.164H18.588s.204.081.323.081c.124 0 .766-.04.766-.04h.366s.241.123.323 0l.08-.122.117.041.247.04h.764l.407.205.2.12h.243l.079-.244.245-.081h1.292l.323.164.364.124.24-.207s.16.042.283.042c.121 0 .203.041.322.041h.807l.121-.083.287-.081h.158s-.121-.081.201-.04c.326.04.283.163.406.163.121 0 .121.124.24.124.123 0 .162.162.162.162l.201.041s.123 0 .244-.125c.121-.12.201-.078.284-.202.079-.123.079-.163.079-.287v-.245h.364l.163.084h.281l.161.12.323.124.08.162h1.172s.445.042.564 0c.123-.04.205-.04.324.042.122.082.241.124.241.124s.083.078.204.078c.121 0-.163.043.564.043.726 0 .444 0 .849-.043.402-.037.427-.037.636-.037.21 0 .415.08.533.08.124 0 .204.369.487.41.281.039.08.039.281.039s.324.041.484 0c.162-.039-.08.041.404-.039.486-.082.603-.124.603-.124l.124-.162.243-.042s0 .042.121.042h.281c.163 0 .242.04.404.04H39.382s.078.122.281.122c.201 0 .283.042.486.042.201 0 .521-.125.521-.125h.326c.118 0 .16.042.281.042H42.61l.565.041.324.042.28.082s.567.08.809.121c.241.042.283.042.406.042.118 0 .322.084.686.084h.524c.525 0 .889.119 1.051.119h.484c.162 0 .525.042.646.083s.322.041.322.041h.564l.406.044.322-.247h1.092l.118.079s.121.042.121.168c0 .119.163.283.163.283s.121.082.242.082h.324c.201 0 .201.084.363 0 .161-.082.564-.082.564-.082h.486s.201.082.322.082.201.084.325.084c.118 0 .281.04.281.04h1.616s.765.041.886.041c.123 0 .605.12.605.12s.769.126.89.206c.119.082-.244.082.284.082.522 0 1.492 0 1.653.041.163.04.244.084.365.084.119 0 .524.08.644.08s.404.04.566.08c.163.043.486.123.644.123H63.806c.163 0 .607.082.848.082.242 0 .284 0 .444.041.162.044.039.044.282.044.243 0 .324.163 1.091.08.769-.08.769-.041.889-.08.119-.044.16 0 .28-.085.123-.082 0 .085.244-.082.242-.163.726-.283.889-.244.161.041.242.205.242.205l.079.162.082.165.164.163.199.163.201.124s-.24.082.286 0c.521-.083.642-.083.642-.083l.244-.041s.281-.041.565-.041h.524l.121.123.164.124.279.042h1.294s.243.038.364.038.201.083.324.083c.12 0 .485.124.485.124h.364l.16.123.199.08.285.163.242.164.322.207.283.08.283.041h.283l.322.122s.124.041.284.083c.162.041.361.123.484.123h.767l.283-.042h.365l.16-.081h.202l.077.123.208.04.159.042.201.041h.201l.162.041.526.042.082.123h.121l.119.121h.121l.323.205h.364l.161.08.163.082h.281l.242-.082.08-.246H84.196l.363.125h.444l.202-.042H85.53l.239.163.203.082.201.124.16.083.124.039s.322.082.443.123c.12.041.403.162.403.162l.161.124.202.163.204.164.199.081s.488.041.607 0c.121-.038.283-.041.404-.081.121-.041.162 0 .281-.041.124-.038.283-.08.283-.08h.203c.122 0 .364.121.364.121s.161.122.282.165c.122.04-.406.163.122.04.525-.124.687-.124.687-.124h.442l.081.084s.968.531 1.05.654c.082.123.445.123.445.123l.685-.042c.163-.041.285-.041.405-.081.121-.042.203-.042.203-.042h.282c.117 0 .281.042.281.042h.201l.245.081.32.085.648.078.564.207.163.041.283.08.241.041s.041.041.162.041.322.04.322.04h.162l.605.246.202.083.243-.041.282.124.162.038.161.085.202.038h.445s-.162.122.281.084c.445-.042.604-.042.604-.042H101.958l.162-.042h.201c.163 0 .324-.038.324-.038l.203-.041h.16l.242.041.286.08.198.08h.124l.322.206.159.081h.124l2.342.656 1.048.411.366.122.363.039h.646s.16.043.324.082c.158.04.158.123.28.123.122 0 .122.041.241.083l.121.041.406.041s.056.082.251.041c.192-.041.396-.082.396-.082l.384.123.702.039.445-.039s.487.122.566.244l.081.121.121.085.202.08h.646l.124.082.481.246.04.203.121.124h1.212c.163 0 0 .043.284 0 .283-.042.443.084.443.084l.28.039.366.205.162.081.401.042h.163l.407-.082.159.082h.283s.122.082.16.203c.042.124.242.207.242.207l.284-.167.121-.04.28-.041H120.975l.08.125s.323.04.445.04c.119 0 .282.083.282.083l.041.16.12.126.203.039s.04.043.243.082c.199.041.361.041.361.041h.89l.038.205.083.244.121.124.242.163.24.124h.245c.121 0 .321.041.321.041l.364.121.202.167.162.08h.969l.244.081.119.083.162.245.121.329s.08 0 .203.039c.119.04.283.081.283.081l.685.042h.159l.245-.083.322.041.485-.041.121.083.202.041s-.12.08.041.124c.161.041-.084-.044.161.041.242.081.04.122.242.081.202-.042.041-.042.202-.042H131.067l.322.042.526.49.203.205.082.081h.201s-.04.083.121.083c.16 0 .242.082.242.082s-.123-.246.162.041l.282.286.484-.041.244-.082.321-.369h.727l.082-.161v-.615c0-.204-.204.203 0-.166.2-.366 0-.204.2-.366.202-.165 0 .245.202-.165.201-.409.043.287.162-.288.123-.57.039-.202.08-.408.043-.203.043 0 .043-.162v-.165s.122.165 0 0l-.123-.163s.08.204-.119.247c-.204.04.037 0-.204.04-.241.041.081 0-.161.041l-.243.041s.93.163 0 0c-.929-.165-.444-.041-.929-.165-.481-.121.283.124-.118 0-.407-.121-.041.206-.363-.121-.324-.33.075.121-.165-.163-.241-.288.324.449-.159-.167-.487-.614.159-.039-.206-.326-.361-.288-.116-.245-.281-.288-.16-.039 1.496-.081-.281.043-1.777.122-1.455.042-1.614.083-.163.039-.042.325-.163.039-.12-.286.163.328 0 0-.161-.325.121.043-.161-.325-.283-.369.041.039-.162-.167-.204-.202 1.25.125-.121-.202-1.373-.327-1.051-.083-1.213-.248-.16-.164.043.122-.16-.164-.204-.282.405.126-.039-.161-.445-.288-.165-.082-.445-.288-.284-.204.121.167-.16-.083-.284-.245-.124-.121-.124-.121s.768.246-.16-.124l-.93-.366c-.199-.083.123-.163-.199-.083-.326.083 0 0-.165.041-.161.042.083.329-.161.042-.24-.286.284.325 0 0a9.809 9.809 0 0 1-.645-.9l-.241-.163s.324-.083-.042-.083h-1.171c-.201 0 .284 0 0 0-.281 0 .082.083-.201 0-.281-.081-.162-.081-.281-.081-.123 0 .201.081-.123 0-.322-.081-.283-.081-.322-.081H121.256c-.242 0 0 .037-.16 0-.162-.041.081.081-.082 0-.16-.085.163.122-.08-.041-.242-.167.162.163-.08-.044-.242-.203-.041-.08-.242-.203-.205-.124-.041-.124-.205-.124-.161 0 .242.042 0 0-.239-.041.162.124-.161 0s-.119-.082-.24-.124c-.122-.039.284.124-.083 0l-.24-.079-.122-.041s.122.081-.119 0c-.243-.083.038-.042-.243-.083-.286-.042.039.041-.162 0-.201-.042.162.083-.124-.042-.281-.122-.241-.122-.281-.122-.041 0 .243.122 0 0-.242-.123 0 .084-.242-.123-.243-.204-.082-.121-.243-.204l-.161-.082h-.929s-.162.041-.321.041c-.163 0 .123.083-.163 0-.283-.08 0 .124-.201 0-.202-.121-.041.041-.202-.121-.161-.165-.081-.165-.161-.165-.082 0 .204.245 0 0-.203-.245-.242-.328-.242-.328V-.67l-.123-.042c-.562-.081-.116-.081-.116-.081H113.344l-.283.081c-.445-.04-.205 0-.445-.04-.241-.041-.162 0-.241-.041-.081-.043.162.041 0 0-.163-.043.447 0-.081-.043-.525-.039-.663-.039-.663-.039l-.224-.083s.04.042-.122 0c-.162-.041-.121.083-.162-.041-.04-.124.274.329 0 0l-.272-.328h-.171l-.123.041h-.4l-.569-.122-.12-.121-.201-.084s-.405.041-.566-.042l-.16-.08s.927.122 0 0c-.929-.124-.567.043-.929-.124-.364-.162-.161-.041-.161-.041l-.203-.121c-.203-.123.404.206-.203-.123-.605-.329.203.123-.24-.122-.445-.247-.242-.124-.365-.207-.121-.079 1.212.536-.08-.04-1.294-.571 1.009.533-.162-.039-1.172-.573-1.05-.491-1.132-.532-.081-.041.406.121-.04-.041-.442-.167.487.162-.041 0-.522-.167-.24-.124-.401-.167-.162-.038.042.043-.121 0-.162-.038.563.208-.162-.038-.727-.246.121-.042-.325-.166-.44-.121-.322-.041-.402-.08-.079-.041.688.204-.038-.041-.729-.246-.324-.165-.528-.205l-.201-.041s.688.122 0 0l-.687-.123s.445.164 0 0c-.446-.163.121.123-.162-.041-.284-.163-.284-.122-.284-.122v-.041s-.118 0-.239-.041c-.121-.039.281.041-.121-.039-.402-.085.121.039-.162-.044-.281-.079 0 0-.24-.041-.247-.038.402.041-.247-.038-.644-.083.042.038-.321-.042-.366-.082-.078 0-.323-.041-.243-.041.444.083-.243-.041-.686-.124.445.041-.241-.042-.687-.082.004-.157-.445-.082-.448.08-.041 0-.363 0h-.324c-.159 0 1.251.082-.159 0-1.414-.079-1.051 0-1.254-.039-.201-.04-.16-.04-.16-.04h-1.777s-.08 0-.442-.042c-.363-.042-.124-.042-.245-.042-.118 0 .204.042-.118 0-.325-.041 1.009.204-.204-.041-1.212-.245.644.204-.365-.041-1.009-.246-.603-.163-.847-.204-.24-.042.123 0-.162-.042-.281-.041.243.042-.078 0-.323-.041 0-.041-.203-.041h-.12c-.688 0-.65.041-.688 0-.042-.039 0 0 0 0s.324.209-.201-.08c-.526-.286.239.163-.284-.124-.525-.286.323.124-.242-.162-.566-.288.242.121-.283-.124-.524-.245.283.163-.283-.164-.566-.326.363.247-.241-.081-.606-.329 0-.288-.443-.329-.444-.039.363.041-.163 0-.525-.039.244-.039-.281-.039h-.365c-.402 0 .121.039-.284 0-.401-.04.93.123-.28 0-1.213-.121-.769 0-1.05-.081-.283-.084-.163-.04-.163-.04s.203.16-.12-.044l-.323-.204h-.404s.485.204-.121 0c-.605-.201.445.288-.2 0-.647-.286.28-.041-.244-.165-.525-.121-.202-.08-.403-.121-.202-.041.809.085-.202-.041-1.01-.121-.161-.083-.647-.121-.484-.04.443.038-.28 0-.727-.04.28.079-.727-.04-1.011-.126-.124.078-.568-.043-.443-.124-.037-.041-.325-.083-.28-.041 1.215-.041-.118-.041-1.332 0-.606.083-1.01.041-.401-.041-.162 0-.322-.041-.162-.042.443.124-.079 0-.53-.121.363.167-.53-.121-.886-.287-.279-.166-.886-.287-.605-.125.363.121-.16 0-.525-.125-.322-.082-.445-.125-.122-.04.646.084-.08 0-.729-.078.039-.04-.366-.078-.401-.042-.118 0-.363 0h-1.451c-.485 0 .443.078-.485 0-.927-.083.281.078-.365 0-.646-.083-.041 0-.562-.083-.527-.083.198.083-.527-.083-.726-.162.365.083-.243-.04-.605-.122-.241-.045-.483-.122-.242-.083.041.041-.242-.083-.284-.124.017-.019-.163-.041-.644-.083-.243.041-.644-.083-.405-.121-.284-.121-.284-.121s.565.084-.121 0c-.686-.084.038 0-.362-.041-.406-.043-.083-.043-.324-.043-.242 0 .281.084-.242 0-.525-.078.08.043-.283-.04-.363-.082-.123.04-.242-.038-.121-.082.443.078-.121-.044-.567-.123-.285 0-.484-.123l-.201-.123s.279.246 0 0c-.285-.241.159-.12-.083-.205-.24-.077.727.168-.202-.036-.93-.209.97.158-.038-.041-1.011-.209-.605-.127-.892-.168-.28-.041.204 0-.119-.041-.324-.037-.161 0-.324-.037-.16-.041.041.037-.16-.041-.203-.087.323-.041-.203-.087-.523-.037-.241.699-.523-.037-.283-.737-.041.816-.162-.082-.121-.9.078.41-.083-.327-.159-.74.083.041-.038-.411-.121-.449-.121.04-.121-.329 0-.364.04 0 0-.364-.041-.371.159.162.04-.167-.12-.323 0 .081-.081-.204-.08-.287.162.204-.039-.119-.205-.328.201.282-.041-.168-.244-.447-.082.33-.164-.16-.08-.492-.16-.41-.08-.492.08-.083-.242.82.08-.083l.325-.9s-.161.572 0 0c.16-.574-.04.081.081-.288.121-.364 0-.161.079-.286.083-.121 0 .08.042-.078.041-.168.041.57.041-.043s-.041-.043-.041-.326c0-.287-.121-.619-.121-.619l.038-.16s0-.124-.038-.245c-.043-.125-.121-.083-.121-.246 0-.166.04-.083-.08-.246-.123-.165-.084.08-.123-.165-.041-.247-.041.042-.041-.247 0-.285-.283-.039 0-.285l.284-.245.081.085.121.081s-.083.038.078 0c.162-.04.162.12.162-.04 0-.168-.039.816 0 0 .041-.818-.039-.492 0-.696.041-.206.041.204.041-.122 0-.33.24.078.041-.207-.201-.288.122.04-.041-.123-.16-.165.041.083-.16-.165-.204-.244-.121-.163-.121-.163s-.083.328-.083-.081c0-.41-.038.203 0-.283.041-.496.041-.041.041-.289 0-.248-.041.367 0-.207.042-.572.042.127.042-.245v-.614s-.202.166 0 0l.201-.163s.121.246 0 0c-.123-.244-.16.411-.123-.162.043-.574-.037.079 0-.288.043-.369.244-.04.043-.286-.204-.244.038-.163-.08-.201l-.124-.043s.323.244 0 0-.038 0-.2-.125c-.162-.119-.039.125-.123-.119-.08-.247 0 .325-.039 0-.041-.328-.2 0-.041-.328l.164-.328s-.164.488 0 0c.158-.491.08-.121.12-.328.038-.206 0 .49.038-.163.043-.655-.038.163 0-.287.043-.451.002-.206.043-.368.038-.165-.081.612 0-.083.079-.697 0 .287.038-.328.041-.614 0 .086.041-.369.042-.448.12-.326.042-.448-.083-.124-.083.247-.083-.328V-25.381c0-.125-.038.53 0-.084.041-.613.124.123.041-.286-.079-.411.282.122 0-.204-.28-.33.102.121-.079-.207-.524-.941-.041.861-.201-.123-.164-.979-.485-.203-.205-.694.285-.49-.605.491-.118-.124.481-.613-.284.615.118-.161.406-.78.041.735.205-.205.158-.941.201.981.158-.168-.038-1.14.285 1.189.043-.242-.052-.295-.074-.413-.084-.424-.033-.045.171 1.465.041.259-.158-1.511.043.82 0-.49-.038-1.309-.4-.164-.199-.776.199-.614-.043.409 0-.124.041-.531.321 0 .199-.49-.119-.492-.078.614-.158-.041-.084-.655-.164-.041-.041-.451.121-.409-.365.247-.043-.204.323-.45.687 0 .323-.328-.362-.328.284.286-.159-.122-.445-.409.121.532-.203-.206-.324-.734-.2.492-.242-.203-.041-.697-.324.45-.041-.206.283-.653-.404-.039-.041-.366.363-.326.041.612.162-.166.121-.776.229 1.354.201-.16-.039-2.21-.158 1.715-.08-.415.08-2.126-.283 1.601 0-.488.284-2.086-.321 1.024 0-.612.322-1.637-.041.775.041-.573.018-.287.032-.391.045-.393.047-.009.058 1.411-.006.184-.08-1.552.242.986.043-.445-.201-1.435.726 1.511.199-.288-.523-1.799.566 2.047 0-.122-.195-.744-.263-.739-.276-.496-.028.453.155 1.754.077.252-.123-2.293-.208 1.715-.064-.495.144-2.209-.301 2.089-.137-.163.063-.881.002-.724-.069-.357-.109.576-.244 1.679.026.234.295-1.564.149-1.56.015-1.383a1.602 1.602 0 0 0-.136.238c.322-1.227.375-.142.27-.415-.106-.281.375-.567.095-.363-.282.206 0-.368 0-.368v-.201s-.043-.126-.043-.249v-.325l-.039-.205v-.532c0-.49-.041-.531 0-.655.039-.121-.041-.121.039-.288.084-.161.164-.329.164-.329s.04-.078.04-.199c0-.124-.081-.206-.081-.328v-.246c0-.123-.123.163 0-.123.119-.288 0 0 .119-.452.122-.45.043-.409.164-.61.121-.208.121.078.121-.208 0-.285-.08.04 0-.285.08-.327-.043-.203.08-.449.121-.247-.039.287.121-.247.163-.531.08-.122.163-.531.079-.408.079 0 .079-.408 0-.412.041.325 0-.412-.043-.733.245 1.064 0-.369-.242-1.428-.201.328-.242-.692-.041-1.022.041-.658 0-.862-.041-.201-.244.288-.041-.16.204-.455-.119.04.041-.246.163-.288-.121.246.163-.209.282-.447-.083-.038.12-.283.204-.248.041.245.162-.164l.121-.409s-.162.325.039-.123c.204-.451.041-.042.121-.287.083-.245-.08.042.083-.245.161-.288.08-.206.241-.369l.16-.164s-.079.614 0 0c.082-.615 0 .286.042-.243.04-.532 0 .243.04-.372.04-.612.04-.447.04-.612 0-.163 0 .698 0 0v-.367c0-.616-.04.328 0-.328.041-.655-.201.532 0-.206.2-.733-.04.41 0-.285.041-.698 0 .819.124-.285.118-1.106-.083 1.184.076-.127.164-1.307-.482 1.272-.076-.203.4-1.468-.689 1.228-.045-.328.65-1.555-.522 1.065.205-.531.724-1.595-.646 1.637.08-.324.168-.455.227-.606.23-.596.008.038-.618 1.879-.028.311.765-2.05-.366 1.266.322-.497.687-1.757-.847.944.12-.652.969-1.593-.967.693.162-.655.139-.163.223-.268.275-.334.363-.469-1.254 1.313-.153.088 1.251-1.391-.806.735.363-.327 1.174-1.064-.08.041.565-.695.646-.736-.037.617.204-.203.24-.819.361.652.201-.166-.162-.818.122.986.204 0 .077-.981.563-.899.563-.899.283-.328.242-.165.283-.328.041-.162-.123.246 0 0 .121-.245-.202.157.041-.162.24-.324-.164.157.08-.083.24-.241 0-.241.16-.241.161 0-.121.456.08 0 .203-.456-.08 1.15.081 0 .066-.459.11-.593.135-.605.038-.011.032.267-.013.149a3.635 3.635 0 0 0-.443-.777h-.323l-.483.572s0-.082-.161 0c-.165.084 0 .125-.165.084-.159-.041.607.083 0 0-.605-.084-.08-.125-.444-.125-.362 0 .122.125-.161.041-.281-.082 0-.041-.201-.041-.203 0 .525-.162-.08-.041-.608.125 0 .082-.486.125-.482.041.123-.043-.284.041-.402.082.082-.245-.198 0-.286.246-.081-.416-.204.082-.12.495.24-.738-.082.164-.324.9.205 1.222-.201.776-.403-.445.041.198-.244-.121-.28-.324.244.157-.119-.083-.362-.241.564-.241-.161-.241-.932 0-.081.168-.608 0-.523-.17.286-.336-.523-.17-.808.17-.364.17-.644.17-.285 0-.242-.2-.285 0-.038.2.201-.29-.038.2-.243.491.323-.531 0 0-.325.532-.204.532-.325.532-.121 0-.041-.287-.323 0-.282.287-.04-.083-.202.204-.16.286.041-.328-.08.083-.121.405.726-.656-.121.405-.845 1.066-.606 1.03-.729.944a1.46 1.46 0 0 0-.199-.124l-.2.04c-.204.043-.084-.077-.204.043-.121.127.204-.083 0 0-.201.085.08-.043-.121.127-.202.158-.243.527-.243.527s-.647.572-.606.738l.042.161.118.245s-.039-.245-.078.168c-.04.405.078-.288-.04.247-.124.527.2-.372 0 .158-.204.534-.042.211-.124.369-.08.165-.08 0-.08.165 0 .163 0-.534 0 0 0 .531.041-.165 0 .531-.039.698.041-.409 0 .243-.039.66 0-.939-.039.126-.04 1.064.119-.693 0 .329-.121 1.02.283.078-.04.573-.323.488.483-.126-.04.287-.527.407.24-.209-.205.201-.441.41-.039-.201-.322.206-.283.408.203-.16-.119.204-.323.369.08-.041-.164.204-.242.248.043-.08-.159.165-.205.245-.083-.942-.205.245-.12 1.189-.037-.939-.079.247-.041 1.184.16-.492-.041.368-.204.861.364.489 0 .693-.363.208-.646.208-.646.208s.162.325-.12.529c-.282.205-.282.041-.282.205 0 .165-.083-.532 0 .165.08.695-.083-.45 0 .246.08.696-.083-.205.041.328.118.528-.041-.739.039.242.079.984.079-.57.079.286v.698c0 .326.323-.819 0 .326-.324 1.145.323-.898 0 .125-.324 1.02-.118.778-.242.899-.121.121.083.038-.082.121-.159.085.283-.121-.039 0-.322.126.121-.449-.322.126-.443.573.039-.454-.203.119-.24.575-.24-.08-.24.328v.247c0 .286.117-.534 0 .161-.123.698-.162.329-.123.78.041.452-.039 0 0 .286.041.285 0-.041.041.166.041.201-.123-.083 0 .119.122.208.322.453.403.781.084.324.204-.167.084.324-.124.493.322-.039 0 .328-.324.368-.245.247-.324.368-.081.124.079 0-.081.124-.162.12.281-.286-.162.12l-.444.409s.041.166.079.411c.042.247.042.492.042.492s.201.081.038.081c-.159 0 .083.084-.159 0-.244-.081-.081.081-.244-.081-.161-.164-.483-.328-.483-.328s.042.04-.041-.164c-.162-.411.159.042-.121-.284-.284-.328.039-.127-.201-.287-.242-.165-.281-.369-.281-.369l-.165-.164-.08-.081c-.323-.328.041.121-.161-.165-.201-.286 0 .124-.162-.163-.161-.286.162.204-.039-.123-.204-.327-.041.204-.122-.163-.082-.372-.121.327-.082-.164.041-.493-.12.286 0-.208.122-.486-.08.165.041-.285.122-.448 0 0 .081-.283.082-.287-.04.122.041-.165.08-.287.08-.163.08-.287 0-.121.08.246 0 0l-.08-.245c-.243-.737-.163.325-.202-.245-.041-.573.08.328 0-.246-.081-.571.145.155-.041-.327-.285-.737.243.327-.04-.244-.283-.573-.121-.082-.203-.328l-.08-.245s.162.286 0 0c-.16-.289-.323-.41-.323-.41s-.483.163-.483-.124v-.286s-.081.083-.081-.326v-.287c0-.328.039.162 0-.328-.041-.489-.041.328 0-.162.039-.493-.156.071-.041-.327.204-.697-.04.53.08-.166.124-.695-.039.327.042-.327.082-.654.28.206.082-.368-.204-.574.44.488 0-.286-.446-.778.16.488-.163-.205-.324-.694-.123-.245-.283-.573-.162-.329.242.287-.041-.121-.283-.412.363.121-.121-.208-.484-.326-.162-.078-.363-.326-.201-.248-.201-.041-.201-.248 0-.2.121-.286.241-.531.12-.244.161-.161.12-.244-.039-.082.242.203 0 0-.24-.204.365.288-.039-.082-.201-.184-.242-.253-.235-.281.012-.024.074-.006.074-.006s-.065.013-.122-.121c-.283-.656-.08.327-.2-.246-.124-.573.12.449 0-.162-.124-.612-.083.325-.083-.248 0-.57-.078.451-.041-.163.041-.616 0 .372 0-.244 0-.617.324.369.041-.163-.281-.533.445.245 0-.286-.445-.533.283.449-.121-.168-.404-.613-.242.168-.324-.365-.08-.531.203.286-.08-.248-.283-.532-.038-.039-.158-.368-.125-.328.037.368-.125-.328-.16-.692.566.288.162-.287-.404-.571.16.415-.242-.285-.402-.694.484.656-.08-.12-.566-.78.605.323-.121-.209-.726-.531.322-.286-.242-.406-.564-.125 0-.204-.324-.165-.322.04 0-.163-.24.04-.244.207.159-.325-.082 0-.244.328 0 0-.162.207-.162.204-.082.121-.082.121s.041-.531-.08.083c-.122.615-.122.365-.122.615 0 .246-.082-.452 0 .246.081.693-.324-.209-.038.324.281.532-.044.042.119.369.162.328.485-.164.162.328-.325.492.323-.492-.08.119-.403.616.244.044-.121.329-.366.287 0 .287-.282.287H51.696c-.124 0 .119.084-.082 0-.201-.083-.121-.083-.201-.083-.083 0 .36.369 0 0-.363-.365-.405.003-.363-.245.038-.244-.163.126 0-.12.159-.245-.284.161.038-.124.325-.287.242.285.325-.287.08-.573.121.369.08-.162-.042-.534.146-.32 0-.411-.201-.123.121-.164-.201-.123-.325.043.201.043-.124.043-.322 0 .366-.043-.322 0-.685.044-.041-.084-.525.08-.484.164.203-.368-.16-.036-.365.323-.203-.168-.324.2-.119.368.162-.164-.119.247-.286.405-.041.121-.164.328-.122.203-.122-.697-.122.077 0 .783.161.25 0 .66-.161.407-.241.53-.241.53s-.082-.329-.121.125l-.041.448s.038-.573-.039.287c-.082.86 0-.411-.041.245-.041.655-.041.615-.041.615s.082-.574 0 .04c-.08.611-.24-.572-.08.165.162.733-.284-.287-.041.286.242.57.162.328.203.447.039.123-.203.041.039.123.242.085.203-.327.242.085.041.408-.039.408.041.57.082.164-.121.041.082.164.199.122-.365-.04.08.122.444.167.363.124.444.167.081.039.403.364.403.364s-.079 0 0 .207l.08.206.326.529v.163c-.244.329-.163.084-.203.207l-.041.122s.041-.165 0 0c-.041.163.322-.286-.041.163-.361.453-.041-.163-.242.205-.201.37-.201.165-.201.37 0 .203-.041-.045 0 .203.041.245 0 .124.041.245.041.122-.041-.366.041.122.08.492 0-.16.037.167.043.325.043.245.043.325 0 .081 0 0 0 0s-.121.248 0 .613c.121.369-.324-.164.121.369.445.532-.445-.245.039.205.484.448-.363-.287.203.206.564.488.281.162.443.369.162.201.121.119.121.119s0-.119.041.082c.039.204 0-.284.039.204.041.495-.118-.246-.039.248.08.492.08-.326.08.247 0 .571-.242.121 0 .571.242.449-.08.041.121.328.204.287-.121-.369.121.121.245.493 0 .207.245.493.241.287.077.122.241.287l.158.16s-.602-.038.123.082c.729.125.202 0 .202 0s.163 0 .406.084c.242.079-.121.079.16.079.283 0 0-.079.202 0l.202.083s-.283-.246 0 0 .162.043.162.043.082.04.121.203c.041.166.041.328.041.328s.201.163 0 .41c-.203.245.281.082-.203.245-.484.163-.323.038-.484.163a8.035 8.035 0 0 0-.525.489v.329l-.121.204-.041.124c-.041.367-.08.245-.041.367.041.122 0 0 0 0s-.039-.163.041.122c.08.288.041-.244.041.126 0 .367.08-.039.039.162-.039.205-.039.286-.039.286l.08.124.041.122s-.242.245 0 .532c.244.286-.121.041.123.245.24.205.201.083.24.205.04.124.082-.042.04.124l-.04.162.203.245.039.165s-.16-.165 0 0c.162.161.039-.003.162.161.121.165 0 0 0 0s.041-.367.121.165c.082.531-.121-.244 0 .205.121.45.03-.018.082.326.119.819.119-.448.119.328 0 .777.043.203 0 .491-.039.286 0 .286 0 .286s-.201-.449-.039 0c.162.45.039 0 .121.246.08.247.041.204.041.204l.039.043-.242.49c0 .205.041.08 0 .205l-.039.121.08.369s-.041.041.039.163c.082.122 0-.081.082.122.08.206.041.044.08.206l.041.165.121.289v.324s.404.203.886.899c.486.698.205.371.364.531.163.167.122.167.122.167s.041-.369.041 0c0 .365-.082-.248-.041.161.041.41 0-.161.041.204.041.369-.082 0 0 .206.083.204-.082-.038.041.163.119.204-.082-.163.042.041.12.204-.042-.083.077.163.123.247.082-.039.123.247.042.286-.041.041 0 .163l.074.344.077.229v.502-.197.53c.077.452-.077.149.077.452.145.305-.077-.53.145.305.224.83.076.379.076.379s0-.23.074.225.074-.076.074.226c0 .305.077.075 0 .305l-.074.227-.074.379s.074.226.372.377c.302.154-.242.184.076.378.373.227 0-.682.226-.224.223.451.147.451.147.451s0-.303.076 0c.076.304-.749-.756.076.304.821 1.059.296-.607.446.529.151 1.136.673-.149.375.53-.298.682-.224.606-.224.606l-.074.076s0-.152-.077.227c-.074.379-.074-.076-.074.379v.454s-.152-.759 0 0c.151.756-.152 0 0 .377l.151.379s-.151.227.074.457c0 0 .076-.08.224.299l.146.38.45.531.151.378s-.301-.683 0 0c.296.681-.151.073.074.377l.222.304.076.454c-.523.451-.076-.151-.298.304-.225.456-.225-.455-.225.147v.309c0 .529-.076-.154 0 .302.075.452-.076 0 0 .227l.075.225-.075.457c.151.526-.224-.303.075.224.298.528-.225 0 .076.302.296.306.15 0 .222.226.074.231.074.08.074.08l-.074.605s-.072 0-.298.225l-.225.226s.375-.152 0 0l-.372.154-.222.454h-.749c-.749 0 .296.152-.377 0-.668-.152.077.152-.372 0-.446-.152.077-.152-.296-.152h-.374l-.898.304-.447-.304c-.6.075.148.152-.6.075-.747-.075-.594 0-.594 0l-.153-.075-.447.152-.148.152s.148-.152-.227 0l-.372.151s.074.152-.224.074c-.299-.074.15-.074-.299-.074-.448 0 .821.074 0 0-.821-.075 0 .074-.448 0-.449-.075-.074 0-.373-.075-.299-.076.073.149-.299-.076l-.375-.229s1.346.454 0 0c-1.343-.452-.298-.226-1.042-.377-.75-.154.221.077-.301-.075-.523-.152.223.152-.449-.079-.673-.226-.074-.073-.074-.073s-.148.152-.372 0l-.227-.153-.523-.072s.074.146-.223.146c-.298 0 .895-.146-.298 0-1.198.152.748 0-.301.079-1.047.073.524.073-.372.073h-1.047c-2.613 0 1.794-.073-.449 0-2.24.079-1.491-.073-1.868 0l-.372.079s-.374.075-1.047.075c0 0-.071.077-.446.077-.374 0-.074.074-.374 0-.301-.077.374.074 0 0-.376-.077.223-.077-.301-.077h-.522c-.449 0 .522.077-.449 0-.971-.075.076-.227-.596-.154-.671.079.445.133-.375.079-1.121-.079 0 .075-.596 0-.599-.079-.3-.079-.525-.079-.222 0 .348.154-.074 0-.422-.146.124-.146-.422-.146-.549-.006.05-.006-.325-.006h-.598c-1.12 0 .441.006-.378.006-.818-.006 1.5.073-.519-.006-2.014-.074 1.495.152-.299 0-1.791-.146-1.569-.146-1.791-.146h-1.42s.227 0-.226.072c-.446.074.151 0-.446.074-.599.079-.3.079-.3.079h-.299c-1.045 0 0-.079-.596 0-.599.073-.449 0-.449 0s.298-.079-.15.073c-.449.154.381.045-.222.154-.822.151.222 0-.45.077-.672.074 1.72.152-.372.074-2.093-.074 1.793.151-.3 0-2.092-.151-1.494 0-1.793-.074l-.299-.077h-1.941c-.151 0 .523-.154 0 0-.525.151-.151-.075-.525.151-.372.226 0 0 0 0s-.222.226-.372.226h-.449s-.522-.075-.744-.075c-.227 0 1.117-.073-.227 0-1.344.075.821-.073-.298 0-1.119.075 1.568-.073-.524 0-2.09.075 1.195.075-.595.075h-1.796c-2.168 0-1.345-.075-1.791 0-.451.077.074-.226-.377 0-.444.229-.296.077-.444.229-.152.151.67-.075-.152.151-.821.225-.224 0-.224 0s1.121.074-.151.152c-1.269.073.897 0-.372.073-1.271.077.747-.151-.449 0-1.195.154.375-.151-.595 0-.971.154.371 0-.375.077-.745.077 0 .077-.596.077h-.599c-.6 0-.372-.154-.6 0-.221.151.151.151-.221.151h-.372c-.377 0 .298-.305-.377 0-.671.303.149 0-.299.151-.446.152.599.074-.223.152-.821.075.522-.152-.223 0-.746.151.074-.152-.45.075-.523.227-.296.076-.296.076l-.227.151-.446.155-.599.375c-.896.457-.298.078-.298.078s.372.149-.377.302c-.744.152.301.077-.372.077-.672 0 .224.149-.372.075-.597-.075.298-.075-.597-.075-.896 0-.225-.154-.896 0-.676.149.073-.379-.448.075-.525.452.149-.305-.228.074-.372.378-.147.074-.297.378-.15.303.447-.378-.15.303-.598.682-.225-.077-.447.378-.224.454.072 0-.151.304-.223.303.223 0-.073.15-.299.153.224.078-.15.153-.375.075-.149 0-.149 0s.223-.303-.226.075l-.448.38-.072.227H.402s.224.074-.074.225c-.3.154-.148-.074-.3.154-.146.226.449-.682-.146.226-.599.91.146-.38-.302.301-.447.682-.147.304-.147.304s.449-.377-.15.227c-.597.606.522-.377-.15.226-.672.609.074-.301-.301.229-.371.528-.371.38-.371.38s.073-.306 0 .148c-.075.454.225.305-.075.454-.298.154 0-.757-.298.154-.053.149-.086.254-.106.317-.101.309.106-.317.106-.317s.033.269-.207.626c-.244.357-.019.13-.244.357-.222.227-.222.077-.222.227 0 .151 0-.303 0 0v.306c0 .602-.224-.306-.074.3.151.602 0-.152.074.302l.077.456s.072.454.298.606l.221.149h1.122C-.647.175-.297.071 0 0" style="fill:#fdd000;fill-opacity:1;fill-rule:nonzero;stroke:none;stroke-width:.274774" transform="matrix(1.28388 0 0 -1.28388 3.48 57.42)"/></g><path d="M285.775 317.894h1.222v-12.568h-1.222zm-2.474-11.95v6.442h-1.984v1.051h1.984v4.169h1.208v-11.662zm-1.438 2.517c-.934.633-2.041 2.042-2.415 3.408-.302-1.395-1.351-2.89-2.589-3.738l-.79.891c1.481.949 2.761 3.005 2.761 5.536v2.143h1.222v-2.129c0-2.43 1.164-4.327 2.588-5.219z" style="fill:#727272;fill-opacity:1;fill-rule:nonzero;stroke:none;stroke-width:.274774" transform="matrix(1.28388 0 0 -1.28388 -164.46 451.353)"/><g style="stroke-width:.274774"><path d="M0 0v-3.322h-1.279v7.665H0V1.05h1.87V0Zm-6.988-5.766c0-.892 1.108-1.423 2.919-1.423 1.812 0 2.933.531 2.933 1.423 0 .891-1.121 1.409-2.933 1.409-1.811 0-2.919-.518-2.919-1.409m2.919-2.459c-2.66 0-4.242.935-4.242 2.459 0 1.51 1.582 2.459 4.242 2.459S.173-4.256.173-5.766c0-1.524-1.582-2.459-4.242-2.459m.748 5.895C-4.457-1.812-5.637-.776-6.168.446c-.374-1.323-1.654-2.502-3.02-3.15l-.777 1.007C-8.167-.935-6.844.575-6.844 2.56v1.193h1.294v-1.15c0-1.985 1.538-3.437 2.976-3.926z" style="fill:#727272;fill-opacity:1;fill-rule:nonzero;stroke:none;stroke-width:.274774" transform="matrix(1.28388 0 0 -1.28388 219.008 48.79)"/></g><g style="stroke-width:.274774"><path d="M0 0c0-.705 1.165-1.193 3.005-1.193 1.87 0 3.048.488 3.048 1.193 0 .719-1.178 1.208-3.048 1.208C1.165 1.208 0 .719 0 0m3.005-2.215c-2.703 0-4.328.806-4.328 2.215 0 1.423 1.625 2.229 4.328 2.229 2.732 0 4.357-.806 4.357-2.229 0-1.409-1.625-2.215-4.357-2.215M-1.38-10.08v3.077h7.362v.906H-1.41v1.035h8.657v-2.89H-.115V-9.03h7.837v-1.05zm-1.294 7.118H8.671v-1.035H-2.674Z" style="fill:#727272;fill-opacity:1;fill-rule:nonzero;stroke:none;stroke-width:.274774" transform="matrix(1.28388 0 0 -1.28388 226.076 46.298)"/></g><g style="stroke-width:.274774"><path d="M0 0v-6.586h-1.265V5.982H0V1.064h1.999V0Zm-4.687.762h-3.364v-3.207h3.364zm-4.616-4.227v8.382h1.251V1.783h3.365v3.15h1.279v-8.398z" style="fill:#727272;fill-opacity:1;fill-rule:nonzero;stroke:none;stroke-width:.274774" transform="matrix(1.28388 0 0 -1.28388 255.913 50.895)"/></g><g style="stroke-width:.274774"><path d="M0 0h1.783v-1.049h-5.047v-5.493h-1.28v5.493h-5.018V0h3.005c.287 1.05.59 2.804.59 4.184h-2.69v1.022h3.983c0-1.827-.273-3.696-.618-5.206h4.055c.259 1.064.46 2.876.46 4.184h-2.904v1.022H.503C.503 3.379.33 1.51 0 0" style="fill:#727272;fill-opacity:1;fill-rule:nonzero;stroke:none;stroke-width:.274774" transform="matrix(1.28388 0 0 -1.28388 272.393 50.969)"/></g><g style="stroke-width:.274774"><path d="M0 0v4.4h1.266V1.035h7.276V0Zm-.043-7.377v3.725h1.265v-2.675h7.377v-1.05zm-1.51 5.896H9.793v-1.035H-1.553Z" style="fill:#727272;fill-opacity:1;fill-rule:nonzero;stroke:none;stroke-width:.274774" transform="matrix(1.28388 0 0 -1.28388 278.567 49.528)"/></g><path d="M368.854 317.894h1.266v-12.568h-1.266zm-2.256-9.548c-1.122.777-2.574 2.272-3.035 3.739-.445-1.539-1.682-3.135-3.105-4.069l-.791.934c1.883 1.193 3.221 3.379 3.221 5.694v2.143h1.322v-2.085c0-2.358 1.41-4.401 3.15-5.407zM381.185 317.894h1.279v-9.131h-1.279zm-6.974-12.179v3.926h1.279v-2.906h7.234v-1.02zm3.322 10.008h-3.48v-3.753h3.48zm-4.746 1.02h5.996v-5.78h-5.996zM394.979 305.326h-1.251v12.568h1.251zm-6.355 10.497c-1.107 0-2.014-.79-2.014-1.884 0-1.078.907-1.811 2.014-1.811 1.092 0 2.043.719 2.043 1.811 0 1.15-.908 1.884-2.043 1.884m0-4.76c-1.854 0-3.278 1.166-3.278 2.863 0 1.739 1.437 2.961 3.278 2.961 1.855 0 3.292-1.164 3.292-2.961 0-1.74-1.465-2.863-3.292-2.863m-.173-2.903a103.458 103.458 0 0 0-3.752-.116l-.201 1.093c1.207 0 2.673.014 4.155.086 1.783.072 3.263.173 4.27.288l.129-1.007c-1.149-.144-3.005-.259-4.601-.344M409.822 317.894h1.279v-7.707h-1.279zm0-9.404h-5.665v-1.984h5.665zm-5.118 4.817c-.907 0-1.683-.417-1.683-1.093 0-.661.791-1.093 1.683-1.093.933 0 1.725.432 1.725 1.093 0 .676-.792 1.093-1.725 1.093m-1.755 4.357h3.653v-1.049h-3.653zm-.073-8.153h8.225v-4.012h-8.225zm1.828.618c-1.698 0-2.992.834-2.992 2.085 0 1.265 1.28 2.085 2.992 2.085 1.74 0 3.034-.82 3.034-2.085 0-1.251-1.294-2.085-3.034-2.085m-3.711 5.709h7.478v-1.036h-7.478z" style="fill:#727272;fill-opacity:1;fill-rule:nonzero;stroke:none;stroke-width:.274774" transform="matrix(1.28388 0 0 -1.28388 -164.46 451.353)"/></g></svg>